<svg xmlns="http://www.w3.org/2000/svg" width="1120" height="824" viewBox="0 0 1120 824">
<rect width="100%" height="100%" fill="#09111b"/>
<style>
text { font-family: -apple-system, BlinkMacSystemFont, 'Segoe UI', sans-serif; }
.muted { fill: #7b8ba1; font-size: 12px; }
.title { fill: #ecf3ff; font-size: 24px; font-weight: 700; }
.panel-title { fill: #ecf3ff; font-size: 15px; font-weight: 700; }
.panel-meta { fill: #a8b6ca; font-size: 12px; }
.axis-label { fill: #7b8ba1; font-size: 11px; }
</style>
<text class="title" x="28" y="36">Pure-Zig Optimization History</text>
<text class="muted" x="28" y="60">Generated from experiments/results.csv on 2026-04-21T15:07:06.488718+00:00</text>
<g>
<rect x="28" y="88" width="520" height="220" rx="18" fill="#0f1b2b" stroke="#1d3148" stroke-width="1"/>
<text class="panel-title" x="46" y="116">Metal Add-One</text>
<text class="panel-meta" x="46" y="132">latest 4642798317.47 elements/s   best 4642798317.47 elements/s</text>
<text class="panel-meta" x="530" y="116" text-anchor="end">2bed129</text>
<text class="panel-meta" x="530" y="132" text-anchor="end">2026-04-21T15:07:06.488718+00:00</text>
<line x1="82" y1="270.00" x2="530" y2="270.00" stroke="#1d3148" stroke-width="1"/>
<text class="axis-label" x="36" y="274.00">0.00000</text>
<line x1="82" y1="236.50" x2="530" y2="236.50" stroke="#1d3148" stroke-width="1"/>
<text class="axis-label" x="36" y="240.50">1392839495.24</text>
<line x1="82" y1="203.00" x2="530" y2="203.00" stroke="#1d3148" stroke-width="1"/>
<text class="axis-label" x="36" y="207.00">2785678990.48</text>
<line x1="82" y1="169.50" x2="530" y2="169.50" stroke="#1d3148" stroke-width="1"/>
<text class="axis-label" x="36" y="173.50">4178518485.72</text>
<line x1="82" y1="136.00" x2="530" y2="136.00" stroke="#1d3148" stroke-width="1"/>
<text class="axis-label" x="36" y="140.00">5571357980.96</text>
<polyline fill="none" stroke="#00b4d8" stroke-width="3" points="82.00,158.33"/>
<circle cx="82.00" cy="158.33" r="4.5" fill="#00b4d8" stroke="#ffffff" stroke-width="1.5"/>
<text class="axis-label" x="82" y="296">oldest</text>
<text class="axis-label" x="530" y="296" text-anchor="end">latest</text>
</g>
<g>
<rect x="572" y="88" width="520" height="220" rx="18" fill="#0f1b2b" stroke="#1d3148" stroke-width="1"/>
<text class="panel-title" x="590" y="116">Logits Head Matvec</text>
<text class="panel-meta" x="590" y="132">latest 15.475 matvec/s   best 15.475 matvec/s</text>
<text class="panel-meta" x="1074" y="116" text-anchor="end">573105b</text>
<text class="panel-meta" x="1074" y="132" text-anchor="end">2026-04-21T14:38:48.472187+00:00</text>
<line x1="626" y1="270.00" x2="1074" y2="270.00" stroke="#1d3148" stroke-width="1"/>
<text class="axis-label" x="580" y="274.00">0.00000</text>
<line x1="626" y1="236.50" x2="1074" y2="236.50" stroke="#1d3148" stroke-width="1"/>
<text class="axis-label" x="580" y="240.50">4.3275</text>
<line x1="626" y1="203.00" x2="1074" y2="203.00" stroke="#1d3148" stroke-width="1"/>
<text class="axis-label" x="580" y="207.00">8.6550</text>
<line x1="626" y1="169.50" x2="1074" y2="169.50" stroke="#1d3148" stroke-width="1"/>
<text class="axis-label" x="580" y="173.50">12.983</text>
<line x1="626" y1="136.00" x2="1074" y2="136.00" stroke="#1d3148" stroke-width="1"/>
<text class="axis-label" x="580" y="140.00">17.310</text>
<polyline fill="none" stroke="#ff6b6b" stroke-width="3" points="626.00,268.55 738.00,268.58 850.00,253.22 962.00,252.76 1074.00,150.20"/>
<circle cx="626.00" cy="268.55" r="3.0" fill="#ff6b6b" stroke="#09111b" stroke-width="1.0"/>
<circle cx="738.00" cy="268.58" r="3.0" fill="#ff6b6b" stroke="#09111b" stroke-width="1.0"/>
<circle cx="850.00" cy="253.22" r="3.0" fill="#ff6b6b" stroke="#09111b" stroke-width="1.0"/>
<circle cx="962.00" cy="252.76" r="3.0" fill="#ff6b6b" stroke="#09111b" stroke-width="1.0"/>
<circle cx="1074.00" cy="150.20" r="4.5" fill="#ff6b6b" stroke="#ffffff" stroke-width="1.5"/>
<text class="axis-label" x="626" y="296">oldest</text>
<text class="axis-label" x="1074" y="296" text-anchor="end">latest</text>
</g>
<g>
<rect x="28" y="332" width="520" height="220" rx="18" fill="#0f1b2b" stroke="#1d3148" stroke-width="1"/>
<text class="panel-title" x="46" y="360">Block 0 QKV Projection</text>
<text class="panel-meta" x="46" y="376">latest 138.39 projection/s   best 138.39 projection/s</text>
<text class="panel-meta" x="530" y="360" text-anchor="end">573105b</text>
<text class="panel-meta" x="530" y="376" text-anchor="end">2026-04-21T14:38:48.472187+00:00</text>
<line x1="82" y1="514.00" x2="530" y2="514.00" stroke="#1d3148" stroke-width="1"/>
<text class="axis-label" x="36" y="518.00">0.00000</text>
<line x1="82" y1="480.50" x2="530" y2="480.50" stroke="#1d3148" stroke-width="1"/>
<text class="axis-label" x="36" y="484.50">38.560</text>
<line x1="82" y1="447.00" x2="530" y2="447.00" stroke="#1d3148" stroke-width="1"/>
<text class="axis-label" x="36" y="451.00">77.121</text>
<line x1="82" y1="413.50" x2="530" y2="413.50" stroke="#1d3148" stroke-width="1"/>
<text class="axis-label" x="36" y="417.50">115.68</text>
<line x1="82" y1="380.00" x2="530" y2="380.00" stroke="#1d3148" stroke-width="1"/>
<text class="axis-label" x="36" y="384.00">154.24</text>
<polyline fill="none" stroke="#f7b801" stroke-width="3" points="82.00,508.56 194.00,508.48 306.00,451.86 418.00,451.69 530.00,393.77"/>
<circle cx="82.00" cy="508.56" r="3.0" fill="#f7b801" stroke="#09111b" stroke-width="1.0"/>
<circle cx="194.00" cy="508.48" r="3.0" fill="#f7b801" stroke="#09111b" stroke-width="1.0"/>
<circle cx="306.00" cy="451.86" r="3.0" fill="#f7b801" stroke="#09111b" stroke-width="1.0"/>
<circle cx="418.00" cy="451.69" r="3.0" fill="#f7b801" stroke="#09111b" stroke-width="1.0"/>
<circle cx="530.00" cy="393.77" r="4.5" fill="#f7b801" stroke="#ffffff" stroke-width="1.5"/>
<text class="axis-label" x="82" y="540">oldest</text>
<text class="axis-label" x="530" y="540" text-anchor="end">latest</text>
</g>
<g>
<rect x="572" y="332" width="520" height="220" rx="18" fill="#0f1b2b" stroke="#1d3148" stroke-width="1"/>
<text class="panel-title" x="590" y="360">Fresh Full Token Pass</text>
<text class="panel-meta" x="590" y="376">latest 0.64510 tok/s   best 0.64510 tok/s</text>
<text class="panel-meta" x="1074" y="360" text-anchor="end">c4e45fa</text>
<text class="panel-meta" x="1074" y="376" text-anchor="end">2026-04-21T14:41:57.327290+00:00</text>
<line x1="626" y1="514.00" x2="1074" y2="514.00" stroke="#1d3148" stroke-width="1"/>
<text class="axis-label" x="580" y="518.00">0.00000</text>
<line x1="626" y1="480.50" x2="1074" y2="480.50" stroke="#1d3148" stroke-width="1"/>
<text class="axis-label" x="580" y="484.50">0.17916</text>
<line x1="626" y1="447.00" x2="1074" y2="447.00" stroke="#1d3148" stroke-width="1"/>
<text class="axis-label" x="580" y="451.00">0.35833</text>
<line x1="626" y1="413.50" x2="1074" y2="413.50" stroke="#1d3148" stroke-width="1"/>
<text class="axis-label" x="580" y="417.50">0.53749</text>
<line x1="626" y1="380.00" x2="1074" y2="380.00" stroke="#1d3148" stroke-width="1"/>
<text class="axis-label" x="580" y="384.00">0.71665</text>
<polyline fill="none" stroke="#2ec4b6" stroke-width="3" points="626.00,504.87 690.00,504.84 754.00,433.63 818.00,433.44 882.00,434.11 946.00,417.87 1010.00,405.64 1074.00,393.38"/>
<circle cx="626.00" cy="504.87" r="3.0" fill="#2ec4b6" stroke="#09111b" stroke-width="1.0"/>
<circle cx="690.00" cy="504.84" r="3.0" fill="#2ec4b6" stroke="#09111b" stroke-width="1.0"/>
<circle cx="754.00" cy="433.63" r="3.0" fill="#2ec4b6" stroke="#09111b" stroke-width="1.0"/>
<circle cx="818.00" cy="433.44" r="3.0" fill="#2ec4b6" stroke="#09111b" stroke-width="1.0"/>
<circle cx="882.00" cy="434.11" r="3.0" fill="#2ec4b6" stroke="#09111b" stroke-width="1.0"/>
<circle cx="946.00" cy="417.87" r="3.0" fill="#2ec4b6" stroke="#09111b" stroke-width="1.0"/>
<circle cx="1010.00" cy="405.64" r="3.0" fill="#2ec4b6" stroke="#09111b" stroke-width="1.0"/>
<circle cx="1074.00" cy="393.38" r="4.5" fill="#2ec4b6" stroke="#ffffff" stroke-width="1.5"/>
<text class="axis-label" x="626" y="540">oldest</text>
<text class="axis-label" x="1074" y="540" text-anchor="end">latest</text>
</g>
<g>
<rect x="28" y="576" width="520" height="220" rx="18" fill="#0f1b2b" stroke="#1d3148" stroke-width="1"/>
<text class="panel-title" x="46" y="604">Cached Decode</text>
<text class="panel-meta" x="46" y="620">latest 0.59878 tok/s   best 0.59878 tok/s</text>
<text class="panel-meta" x="530" y="604" text-anchor="end">c4e45fa</text>
<text class="panel-meta" x="530" y="620" text-anchor="end">2026-04-21T14:41:57.327290+00:00</text>
<line x1="82" y1="758.00" x2="530" y2="758.00" stroke="#1d3148" stroke-width="1"/>
<text class="axis-label" x="36" y="762.00">0.00000</text>
<line x1="82" y1="724.50" x2="530" y2="724.50" stroke="#1d3148" stroke-width="1"/>
<text class="axis-label" x="36" y="728.50">0.16631</text>
<line x1="82" y1="691.00" x2="530" y2="691.00" stroke="#1d3148" stroke-width="1"/>
<text class="axis-label" x="36" y="695.00">0.33263</text>
<line x1="82" y1="657.50" x2="530" y2="657.50" stroke="#1d3148" stroke-width="1"/>
<text class="axis-label" x="36" y="661.50">0.49894</text>
<line x1="82" y1="624.00" x2="530" y2="624.00" stroke="#1d3148" stroke-width="1"/>
<text class="axis-label" x="36" y="628.00">0.66525</text>
<polyline fill="none" stroke="#3a86ff" stroke-width="3" points="82.00,748.43 146.00,748.96 210.00,676.21 274.00,676.04 338.00,690.80 402.00,660.10 466.00,648.68 530.00,637.39"/>
<circle cx="82.00" cy="748.43" r="3.0" fill="#3a86ff" stroke="#09111b" stroke-width="1.0"/>
<circle cx="146.00" cy="748.96" r="3.0" fill="#3a86ff" stroke="#09111b" stroke-width="1.0"/>
<circle cx="210.00" cy="676.21" r="3.0" fill="#3a86ff" stroke="#09111b" stroke-width="1.0"/>
<circle cx="274.00" cy="676.04" r="3.0" fill="#3a86ff" stroke="#09111b" stroke-width="1.0"/>
<circle cx="338.00" cy="690.80" r="3.0" fill="#3a86ff" stroke="#09111b" stroke-width="1.0"/>
<circle cx="402.00" cy="660.10" r="3.0" fill="#3a86ff" stroke="#09111b" stroke-width="1.0"/>
<circle cx="466.00" cy="648.68" r="3.0" fill="#3a86ff" stroke="#09111b" stroke-width="1.0"/>
<circle cx="530.00" cy="637.39" r="4.5" fill="#3a86ff" stroke="#ffffff" stroke-width="1.5"/>
<text class="axis-label" x="82" y="784">oldest</text>
<text class="axis-label" x="530" y="784" text-anchor="end">latest</text>
</g>
</svg>
